<svg width="1512" height="838" viewBox="0 0 1512 838" fill="none" xmlns="http://www.w3.org/2000/svg">
<g clip-path="url(#clip0_392_1243)">
<rect width="1512" height="838" fill="#E1D3C6"/>
<g filter="url(#filter0_d_392_1243)">
<path fill-rule="evenodd" clip-rule="evenodd" d="M854.795 509H819.974L758.029 555.459H549.105L597.717 519H562.897L514.285 555.459H143.468L118.219 574.396H489.035L420.357 625.905H213.568L188.319 644.842H395.108L338.549 687.261H-2.69419L-27.9436 706.198H159.623L-16.1126 838H18.7081L194.444 706.198H313.299L137.563 838H172.384L429.928 644.842H638.852L481.632 762.757H374.384L349.134 781.694H456.382L381.307 838H416.128L491.203 781.694H692.234L717.483 762.757H516.452L673.672 644.842H874.704L899.954 625.905H698.922L767.6 574.396H873.919L899.169 555.459H792.849L854.795 509ZM732.779 574.396H523.856L455.178 625.905H664.101L732.779 574.396ZM1545.24 518H1510.42L1284.74 687.261L1162.64 687.261L1306.39 579.446H1271.57L1127.82 687.261H1020.57L1222.23 536.017H1187.41L985.748 687.261H852.966L1090.65 509H1055.83L617.16 838H651.981L827.717 706.198H960.498L784.762 838H819.583L995.319 706.198H1102.57L957.803 814.77H992.623L1137.39 706.198H1512.56L1537.81 687.261L1319.56 687.261L1545.24 518ZM1463.77 753.414H1074.43L1049.18 772.351H1438.52L1463.77 753.414Z" fill="#FFE8D6"/>
</g>
<g clip-path="url(#clip1_392_1243)" filter="url(#filter1_d_392_1243)">
<g filter="url(#filter2_d_392_1243)">
<path d="M895.25 502.125C895.25 514.928 878.111 537.721 870.597 547.125C868.795 549.366 865.455 549.366 863.653 547.125C856.139 537.721 839 514.928 839 502.125C839 486.598 851.598 474 867.125 474C882.652 474 895.25 486.598 895.25 502.125Z" fill="#4F4747"/>
</g>
<ellipse cx="867.125" cy="501.31" rx="17.1196" ry="17.1196" fill="#FFE8D6"/>
<path d="M855.784 508.545L857.673 505.036H876.662L878.313 508.545C878.272 510.031 877.18 510.403 876.638 510.403H857.713C855.683 510.031 855.582 509.009 855.784 508.545Z" fill="#4E4847"/>
<path d="M864.381 508.751L864.887 507.719H869.393L869.747 508.751H864.381Z" fill="#E9DDD1"/>
<path d="M857.673 496.342C857.673 494.133 859.463 492.342 861.673 492.342H872.662C874.871 492.342 876.662 494.133 876.662 496.342V505.036H857.673V496.342Z" fill="#504847"/>
<rect x="859.427" y="493.787" width="15.6865" height="10.3201" fill="#EADDD2"/>
</g>
<g clip-path="url(#clip2_392_1243)" filter="url(#filter3_d_392_1243)">
<g filter="url(#filter4_d_392_1243)">
<path d="M1459.06 514.421C1459.06 532.821 1434.36 565.579 1423.53 579.095C1420.94 582.316 1416.12 582.316 1413.53 579.095C1402.7 565.579 1378 532.821 1378 514.421C1378 492.105 1396.15 474 1418.53 474C1440.91 474 1459.06 492.105 1459.06 514.421Z" fill="#A26341"/>
</g>
<path d="M1418.1 543.163C1420.46 543.163 1422.37 541.062 1422.37 538.47C1422.37 535.878 1420.46 533.777 1418.1 533.777C1415.75 533.777 1413.84 535.878 1413.84 538.47C1413.84 541.062 1415.75 543.163 1418.1 543.163Z" fill="#FFE8D6"/>
<path d="M1441.75 505.341C1434.67 501.063 1426.48 498.794 1418.13 498.794C1409.78 498.794 1401.59 501.063 1394.51 505.341C1394.24 505.503 1394 505.717 1393.81 505.969C1393.62 506.222 1393.49 506.509 1393.42 506.812C1393.35 507.115 1393.34 507.429 1393.4 507.736C1393.45 508.042 1393.57 508.334 1393.75 508.595L1393.92 508.857C1394.26 509.348 1394.78 509.696 1395.37 509.828C1395.97 509.96 1396.59 509.866 1397.12 509.567C1403.4 505.755 1410.67 503.733 1418.09 503.733C1425.51 503.733 1432.78 505.755 1439.07 509.567C1439.59 509.866 1440.22 509.96 1440.81 509.828C1441.4 509.696 1441.92 509.348 1442.26 508.857L1442.44 508.595C1442.62 508.339 1442.74 508.051 1442.8 507.747C1442.86 507.444 1442.86 507.132 1442.8 506.829C1442.74 506.526 1442.61 506.239 1442.43 505.983C1442.25 505.728 1442.02 505.509 1441.75 505.341Z" fill="#FFE8D6"/>
<path d="M1436.58 515.136C1431.04 511.704 1424.65 509.886 1418.13 509.886C1411.61 509.886 1405.22 511.704 1399.68 515.136C1399.39 515.318 1399.14 515.554 1398.94 515.832C1398.75 516.11 1398.61 516.425 1398.54 516.756C1398.46 517.088 1398.46 517.431 1398.52 517.766C1398.58 518.1 1398.71 518.419 1398.89 518.703L1399.08 518.992C1399.44 519.533 1399.99 519.916 1400.62 520.061C1401.26 520.206 1401.92 520.103 1402.48 519.774C1407.17 516.866 1412.58 515.325 1418.09 515.325C1423.61 515.325 1429.02 516.866 1433.7 519.774C1434.26 520.103 1434.93 520.206 1435.56 520.061C1436.19 519.916 1436.75 519.533 1437.11 518.992L1437.29 518.703C1437.48 518.423 1437.61 518.107 1437.68 517.776C1437.74 517.444 1437.74 517.103 1437.68 516.771C1437.61 516.44 1437.48 516.125 1437.29 515.844C1437.1 515.564 1436.86 515.323 1436.58 515.136Z" fill="#FFE8D6"/>
<path d="M1428.95 525.73C1425.67 523.738 1421.92 522.685 1418.1 522.685C1414.28 522.685 1410.54 523.738 1407.26 525.73C1407 525.898 1406.77 526.118 1406.59 526.376C1406.41 526.635 1406.28 526.927 1406.21 527.236C1406.15 527.545 1406.14 527.865 1406.2 528.176C1406.25 528.487 1406.37 528.784 1406.54 529.049L1406.7 529.303C1407.04 529.82 1407.57 530.181 1408.17 530.311C1408.78 530.441 1409.41 530.331 1409.93 530.002C1412.41 528.526 1415.23 527.747 1418.1 527.747C1420.98 527.747 1423.8 528.526 1426.28 530.002C1426.8 530.329 1427.43 530.437 1428.04 530.304C1428.64 530.171 1429.17 529.806 1429.51 529.287L1429.67 529.033C1429.84 528.769 1429.96 528.474 1430.01 528.164C1430.07 527.854 1430.06 527.536 1429.99 527.228C1429.93 526.92 1429.8 526.629 1429.62 526.372C1429.44 526.115 1429.21 525.897 1428.95 525.73Z" fill="#FFE8D6"/>
</g>
<g clip-path="url(#clip3_392_1243)" filter="url(#filter5_d_392_1243)">
<g filter="url(#filter6_d_392_1243)">
<path d="M1066 665C1066 696.409 1023.95 752.328 1005.52 775.4C1001.1 780.898 992.903 780.898 988.483 775.4C970.047 752.328 928 696.409 928 665C928 626.906 958.906 596 997 596C1035.09 596 1066 626.906 1066 665Z" fill="#DFAE8C"/>
</g>
<path d="M1024.97 652.931H960.879C958.677 677.617 975.688 694.725 984.469 700.194H960.879L969.135 706.834H1018.68L1028.11 700.194H1002.16C1015.92 688.085 1011.2 686.522 1015.14 687.304C1019.07 688.085 1043.44 679.492 1040.3 664.258C1037.78 652.071 1029.03 651.629 1024.97 652.931Z" fill="#FFE8D6"/>
<path d="M999.016 640.822C996.906 642.22 991.677 645.639 989.58 647.853C989.187 645.509 989.618 640.785 992.332 638.088C995.085 635.354 996.788 632.75 997.051 631.448C998.623 626.37 992.464 619.079 988.401 615.823C1003.34 618.558 1005.76 626.564 1006.09 629.885C1006.49 633.791 1001.38 639.26 999.016 640.822Z" fill="#FFE8D6"/>
<path d="M1025.37 661.072L1017.68 680.904C1020.46 681.721 1025.32 678.818 1027.4 677.264C1031.71 674.037 1033.56 668.03 1033.65 666.731C1034.37 660.829 1031.71 658.637 1030.29 658.278C1028.14 657.504 1026.11 659.818 1025.37 661.072Z" fill="#DFAE8C"/>
</g>
<g clip-path="url(#clip4_392_1243)" filter="url(#filter7_d_392_1243)">
<g filter="url(#filter8_d_392_1243)">
<path d="M425.25 542.625C425.25 565.67 394.4 606.697 380.874 623.625C377.631 627.659 371.619 627.659 368.376 623.625C354.85 606.697 324 565.67 324 542.625C324 514.676 346.676 492 374.625 492C402.574 492 425.25 514.676 425.25 542.625Z" fill="#86866B"/>
</g>
<path d="M361.137 556.319C359.821 553.717 359.135 550.841 359.136 547.924C359.136 537.965 366.881 530.886 377.723 529.337C390.368 527.531 395.793 520.561 399.408 516.946C410.25 557.218 390.114 566.511 377.723 566.511C374.46 566.512 371.255 565.654 368.429 564.023" stroke="#FFE8D6" stroke-width="6" stroke-linecap="round" stroke-linejoin="round"/>
<path d="M346.745 572.707C348.293 563.413 354.359 557.639 368.429 554.12C378.395 551.629 385.353 545.384 390.114 538.801" stroke="#FFE8D6" stroke-width="6" stroke-linecap="round" stroke-linejoin="round"/>
</g>
</g>
<defs>
<filter id="filter0_d_392_1243" x="-27.9436" y="508" width="1581.19" height="337" filterUnits="userSpaceOnUse" color-interpolation-filters="sRGB">
<feFlood flood-opacity="0" result="BackgroundImageFix"/>
<feColorMatrix in="SourceAlpha" type="matrix" values="0 0 0 0 0 0 0 0 0 0 0 0 0 0 0 0 0 0 127 0" result="hardAlpha"/>
<feOffset dx="4" dy="3"/>
<feGaussianBlur stdDeviation="2"/>
<feComposite in2="hardAlpha" operator="out"/>
<feColorMatrix type="matrix" values="0 0 0 0 0 0 0 0 0 0 0 0 0 0 0 0 0 0 0.2 0"/>
<feBlend mode="normal" in2="BackgroundImageFix" result="effect1_dropShadow_392_1243"/>
<feBlend mode="normal" in="SourceGraphic" in2="effect1_dropShadow_392_1243" result="shape"/>
</filter>
<filter id="filter1_d_392_1243" x="835" y="474" width="64.25" height="83" filterUnits="userSpaceOnUse" color-interpolation-filters="sRGB">
<feFlood flood-opacity="0" result="BackgroundImageFix"/>
<feColorMatrix in="SourceAlpha" type="matrix" values="0 0 0 0 0 0 0 0 0 0 0 0 0 0 0 0 0 0 127 0" result="hardAlpha"/>
<feOffset dy="4"/>
<feGaussianBlur stdDeviation="2"/>
<feComposite in2="hardAlpha" operator="out"/>
<feColorMatrix type="matrix" values="0 0 0 0 0 0 0 0 0 0 0 0 0 0 0 0 0 0 0.25 0"/>
<feBlend mode="normal" in2="BackgroundImageFix" result="effect1_dropShadow_392_1243"/>
<feBlend mode="normal" in="SourceGraphic" in2="effect1_dropShadow_392_1243" result="shape"/>
</filter>
<filter id="filter2_d_392_1243" x="835" y="474" width="64.25" height="82.8059" filterUnits="userSpaceOnUse" color-interpolation-filters="sRGB">
<feFlood flood-opacity="0" result="BackgroundImageFix"/>
<feColorMatrix in="SourceAlpha" type="matrix" values="0 0 0 0 0 0 0 0 0 0 0 0 0 0 0 0 0 0 127 0" result="hardAlpha"/>
<feOffset dy="4"/>
<feGaussianBlur stdDeviation="2"/>
<feComposite in2="hardAlpha" operator="out"/>
<feColorMatrix type="matrix" values="0 0 0 0 0 0 0 0 0 0 0 0 0 0 0 0 0 0 0.25 0"/>
<feBlend mode="normal" in2="BackgroundImageFix" result="effect1_dropShadow_392_1243"/>
<feBlend mode="normal" in="SourceGraphic" in2="effect1_dropShadow_392_1243" result="shape"/>
</filter>
<filter id="filter3_d_392_1243" x="1374" y="474" width="125.75" height="165" filterUnits="userSpaceOnUse" color-interpolation-filters="sRGB">
<feFlood flood-opacity="0" result="BackgroundImageFix"/>
<feColorMatrix in="SourceAlpha" type="matrix" values="0 0 0 0 0 0 0 0 0 0 0 0 0 0 0 0 0 0 127 0" result="hardAlpha"/>
<feOffset dy="4"/>
<feGaussianBlur stdDeviation="2"/>
<feComposite in2="hardAlpha" operator="out"/>
<feColorMatrix type="matrix" values="0 0 0 0 0 0 0 0 0 0 0 0 0 0 0 0 0 0 0.25 0"/>
<feBlend mode="normal" in2="BackgroundImageFix" result="effect1_dropShadow_392_1243"/>
<feBlend mode="normal" in="SourceGraphic" in2="effect1_dropShadow_392_1243" result="shape"/>
</filter>
<filter id="filter4_d_392_1243" x="1374" y="474" width="89.0598" height="115.511" filterUnits="userSpaceOnUse" color-interpolation-filters="sRGB">
<feFlood flood-opacity="0" result="BackgroundImageFix"/>
<feColorMatrix in="SourceAlpha" type="matrix" values="0 0 0 0 0 0 0 0 0 0 0 0 0 0 0 0 0 0 127 0" result="hardAlpha"/>
<feOffset dy="4"/>
<feGaussianBlur stdDeviation="2"/>
<feComposite in2="hardAlpha" operator="out"/>
<feColorMatrix type="matrix" values="0 0 0 0 0 0 0 0 0 0 0 0 0 0 0 0 0 0 0.25 0"/>
<feBlend mode="normal" in2="BackgroundImageFix" result="effect1_dropShadow_392_1243"/>
<feBlend mode="normal" in="SourceGraphic" in2="effect1_dropShadow_392_1243" result="shape"/>
</filter>
<filter id="filter5_d_392_1243" x="924" y="596" width="146" height="192" filterUnits="userSpaceOnUse" color-interpolation-filters="sRGB">
<feFlood flood-opacity="0" result="BackgroundImageFix"/>
<feColorMatrix in="SourceAlpha" type="matrix" values="0 0 0 0 0 0 0 0 0 0 0 0 0 0 0 0 0 0 127 0" result="hardAlpha"/>
<feOffset dy="4"/>
<feGaussianBlur stdDeviation="2"/>
<feComposite in2="hardAlpha" operator="out"/>
<feColorMatrix type="matrix" values="0 0 0 0 0 0 0 0 0 0 0 0 0 0 0 0 0 0 0.25 0"/>
<feBlend mode="normal" in2="BackgroundImageFix" result="effect1_dropShadow_392_1243"/>
<feBlend mode="normal" in="SourceGraphic" in2="effect1_dropShadow_392_1243" result="shape"/>
</filter>
<filter id="filter6_d_392_1243" x="924" y="596" width="146" height="191.524" filterUnits="userSpaceOnUse" color-interpolation-filters="sRGB">
<feFlood flood-opacity="0" result="BackgroundImageFix"/>
<feColorMatrix in="SourceAlpha" type="matrix" values="0 0 0 0 0 0 0 0 0 0 0 0 0 0 0 0 0 0 127 0" result="hardAlpha"/>
<feOffset dy="4"/>
<feGaussianBlur stdDeviation="2"/>
<feComposite in2="hardAlpha" operator="out"/>
<feColorMatrix type="matrix" values="0 0 0 0 0 0 0 0 0 0 0 0 0 0 0 0 0 0 0.25 0"/>
<feBlend mode="normal" in2="BackgroundImageFix" result="effect1_dropShadow_392_1243"/>
<feBlend mode="normal" in="SourceGraphic" in2="effect1_dropShadow_392_1243" result="shape"/>
</filter>
<filter id="filter7_d_392_1243" x="320" y="492" width="109.25" height="143" filterUnits="userSpaceOnUse" color-interpolation-filters="sRGB">
<feFlood flood-opacity="0" result="BackgroundImageFix"/>
<feColorMatrix in="SourceAlpha" type="matrix" values="0 0 0 0 0 0 0 0 0 0 0 0 0 0 0 0 0 0 127 0" result="hardAlpha"/>
<feOffset dy="4"/>
<feGaussianBlur stdDeviation="2"/>
<feComposite in2="hardAlpha" operator="out"/>
<feColorMatrix type="matrix" values="0 0 0 0 0 0 0 0 0 0 0 0 0 0 0 0 0 0 0.25 0"/>
<feBlend mode="normal" in2="BackgroundImageFix" result="effect1_dropShadow_392_1243"/>
<feBlend mode="normal" in="SourceGraphic" in2="effect1_dropShadow_392_1243" result="shape"/>
</filter>
<filter id="filter8_d_392_1243" x="320" y="492" width="109.25" height="142.651" filterUnits="userSpaceOnUse" color-interpolation-filters="sRGB">
<feFlood flood-opacity="0" result="BackgroundImageFix"/>
<feColorMatrix in="SourceAlpha" type="matrix" values="0 0 0 0 0 0 0 0 0 0 0 0 0 0 0 0 0 0 127 0" result="hardAlpha"/>
<feOffset dy="4"/>
<feGaussianBlur stdDeviation="2"/>
<feComposite in2="hardAlpha" operator="out"/>
<feColorMatrix type="matrix" values="0 0 0 0 0 0 0 0 0 0 0 0 0 0 0 0 0 0 0.25 0"/>
<feBlend mode="normal" in2="BackgroundImageFix" result="effect1_dropShadow_392_1243"/>
<feBlend mode="normal" in="SourceGraphic" in2="effect1_dropShadow_392_1243" result="shape"/>
</filter>
<clipPath id="clip0_392_1243">
<rect width="1512" height="838" fill="white"/>
</clipPath>
<clipPath id="clip1_392_1243">
<rect width="56.25" height="75" fill="white" transform="translate(839 474)"/>
</clipPath>
<clipPath id="clip2_392_1243">
<rect width="117.75" height="157" fill="white" transform="translate(1378 474)"/>
</clipPath>
<clipPath id="clip3_392_1243">
<rect width="138" height="184" fill="white" transform="translate(928 596)"/>
</clipPath>
<clipPath id="clip4_392_1243">
<rect width="101.25" height="135" fill="white" transform="translate(324 492)"/>
</clipPath>
</defs>
</svg>
