<svg width="141" height="81" viewBox="0 0 141 81" fill="none" xmlns="http://www.w3.org/2000/svg">
<path d="M80.944 16.152L75.12 39H69.616L66.512 27C66.448 26.7653 66.3627 26.4133 66.256 25.944C66.1707 25.4747 66.064 24.9627 65.936 24.408C65.8293 23.8533 65.7333 23.3307 65.648 22.84C65.5627 22.328 65.4987 21.9333 65.456 21.656C65.4347 21.9333 65.3707 22.328 65.264 22.84C65.1787 23.3307 65.0827 23.8533 64.976 24.408C64.8693 24.9413 64.7627 25.4533 64.656 25.944C64.5493 26.4133 64.464 26.776 64.4 27.032L61.328 39H55.824L50 16.152H54.768L57.68 28.632C57.7653 28.9947 57.8613 29.4427 57.968 29.976C58.0747 30.488 58.1813 31.032 58.288 31.608C58.3947 32.1627 58.4907 32.7067 58.576 33.24C58.6827 33.7733 58.7573 34.232 58.8 34.616C58.8427 34.2107 58.9067 33.752 58.992 33.24C59.0773 32.7067 59.1733 32.1733 59.28 31.64C59.3867 31.0853 59.4827 30.5733 59.568 30.104C59.6747 29.6133 59.7707 29.2293 59.856 28.952L63.184 16.152H67.76L71.088 28.952C71.152 29.2293 71.2373 29.6133 71.344 30.104C71.4507 30.5733 71.5573 31.0853 71.664 31.64C71.7707 32.1947 71.8667 32.7387 71.952 33.272C72.0373 33.784 72.1013 34.232 72.144 34.616C72.208 34.0827 72.304 33.4533 72.432 32.728C72.56 31.9813 72.6987 31.2347 72.848 30.488C73.0187 29.7413 73.1573 29.1227 73.264 28.632L76.176 16.152H80.944ZM98.6805 30.232C98.6805 31.6827 98.4778 32.9733 98.0725 34.104C97.6885 35.2347 97.1232 36.1947 96.3765 36.984C95.6512 37.752 94.7658 38.3387 93.7205 38.744C92.6752 39.128 91.4912 39.32 90.1685 39.32C88.9525 39.32 87.8218 39.128 86.7765 38.744C85.7525 38.3387 84.8672 37.752 84.1205 36.984C83.3738 36.1947 82.7872 35.2347 82.3605 34.104C81.9552 32.9733 81.7525 31.6827 81.7525 30.232C81.7525 28.2907 82.0938 26.6587 82.7765 25.336C83.4592 23.992 84.4405 22.968 85.7205 22.264C87.0005 21.56 88.5152 21.208 90.2645 21.208C91.9072 21.208 93.3578 21.56 94.6165 22.264C95.8752 22.968 96.8672 23.992 97.5925 25.336C98.3178 26.6587 98.6805 28.2907 98.6805 30.232ZM86.6165 30.232C86.6165 31.384 86.7338 32.3547 86.9685 33.144C87.2245 33.912 87.6192 34.4987 88.1525 34.904C88.6858 35.288 89.3792 35.48 90.2325 35.48C91.0858 35.48 91.7685 35.288 92.2805 34.904C92.8138 34.4987 93.1978 33.912 93.4325 33.144C93.6885 32.3547 93.8165 31.384 93.8165 30.232C93.8165 29.08 93.6885 28.12 93.4325 27.352C93.1978 26.584 92.8138 26.008 92.2805 25.624C91.7472 25.24 91.0538 25.048 90.2005 25.048C88.9418 25.048 88.0245 25.4853 87.4485 26.36C86.8938 27.2133 86.6165 28.504 86.6165 30.232ZM112.381 21.208C112.616 21.208 112.893 21.2187 113.213 21.24C113.533 21.2613 113.789 21.2933 113.981 21.336L113.629 25.816C113.48 25.7733 113.256 25.7413 112.957 25.72C112.68 25.6773 112.434 25.656 112.221 25.656C111.602 25.656 111.005 25.7413 110.429 25.912C109.853 26.0613 109.33 26.3067 108.861 26.648C108.413 26.9893 108.05 27.448 107.773 28.024C107.517 28.5787 107.389 29.272 107.389 30.104V39H102.621V21.528H106.237L106.941 24.472H107.165C107.506 23.8747 107.933 23.3307 108.445 22.84C108.957 22.3493 109.544 21.9547 110.205 21.656C110.888 21.3573 111.613 21.208 112.381 21.208ZM121.92 25.56C121.92 26.2213 121.888 26.8827 121.824 27.544C121.782 28.184 121.728 28.8347 121.664 29.496H121.728C121.942 29.1973 122.155 28.8987 122.368 28.6C122.603 28.3013 122.838 28.0027 123.072 27.704C123.307 27.4053 123.552 27.1173 123.808 26.84L128.704 21.528H134.08L127.136 29.112L134.496 39H128.992L123.968 31.928L121.92 33.56V39H117.152V14.68H121.92V25.56Z" fill="#755C4E"/>
<path d="M62.896 47.36C61.68 47.36 60.5813 47.5733 59.6 48C58.6187 48.4053 57.7867 49.0133 57.104 49.824C56.4213 50.6133 55.8987 51.584 55.536 52.736C55.1733 53.8667 54.992 55.1467 54.992 56.576C54.992 58.4533 55.28 60.0853 55.856 61.472C56.4533 62.8587 57.328 63.9253 58.48 64.672C59.6533 65.4187 61.1147 65.792 62.864 65.792C63.8667 65.792 64.816 65.7067 65.712 65.536C66.608 65.3653 67.4827 65.152 68.336 64.896V67.392C67.4827 67.712 66.5973 67.9467 65.68 68.096C64.784 68.2453 63.7067 68.32 62.448 68.32C60.1227 68.32 58.1813 67.84 56.624 66.88C55.0667 65.92 53.8933 64.5547 53.104 62.784C52.336 61.0133 51.952 58.9333 51.952 56.544C51.952 54.816 52.1867 53.2373 52.656 51.808C53.1467 50.3787 53.8507 49.1413 54.768 48.096C55.7067 47.0507 56.8587 46.2507 58.224 45.696C59.5893 45.12 61.1573 44.832 62.928 44.832C64.1013 44.832 65.232 44.9493 66.32 45.184C67.408 45.4187 68.3787 45.7493 69.232 46.176L68.08 48.608C67.376 48.288 66.5867 48 65.712 47.744C64.8587 47.488 63.92 47.36 62.896 47.36ZM79.4348 50.56C81.5254 50.56 83.0721 51.0187 84.0748 51.936C85.0774 52.8533 85.5788 54.3147 85.5788 56.32V68H83.5308L82.9868 65.568H82.8588C82.3681 66.1867 81.8561 66.7093 81.3228 67.136C80.8108 67.5413 80.2134 67.84 79.5308 68.032C78.8694 68.224 78.0588 68.32 77.0988 68.32C76.0748 68.32 75.1468 68.1387 74.3148 67.776C73.5041 67.4133 72.8641 66.8587 72.3948 66.112C71.9254 65.344 71.6908 64.384 71.6908 63.232C71.6908 61.5253 72.3628 60.2133 73.7068 59.296C75.0508 58.3573 77.1201 57.8453 79.9148 57.76L82.8268 57.664V56.64C82.8268 55.2107 82.5174 54.2187 81.8988 53.664C81.2801 53.1093 80.4054 52.832 79.2748 52.832C78.3788 52.832 77.5254 52.9707 76.7148 53.248C75.9041 53.504 75.1468 53.8027 74.4427 54.144L73.5788 52.032C74.3254 51.6267 75.2108 51.2853 76.2348 51.008C77.2588 50.7093 78.3254 50.56 79.4348 50.56ZM80.2668 59.712C78.1334 59.7973 76.6508 60.1387 75.8188 60.736C75.0081 61.3333 74.6028 62.176 74.6028 63.264C74.6028 64.224 74.8908 64.928 75.4668 65.376C76.0641 65.824 76.8214 66.048 77.7388 66.048C79.1894 66.048 80.3948 65.6533 81.3548 64.864C82.3148 64.0533 82.7948 62.816 82.7948 61.152V59.616L80.2668 59.712ZM98.7803 53.024H94.4603V68H91.6443V53.024H88.6363V51.712L91.6443 50.752V49.76C91.6443 48.288 91.8576 47.0933 92.2843 46.176C92.7323 45.2587 93.3723 44.5867 94.2043 44.16C95.0363 43.7333 96.0389 43.52 97.2123 43.52C97.8949 43.52 98.5136 43.584 99.0683 43.712C99.6443 43.8187 100.135 43.9467 100.54 44.096L99.8043 46.304C99.4629 46.1973 99.0683 46.0907 98.6203 45.984C98.1723 45.8773 97.7136 45.824 97.2443 45.824C96.3056 45.824 95.6016 46.144 95.1323 46.784C94.6843 47.4027 94.4603 48.384 94.4603 49.728V50.848H98.7803V53.024ZM108.5 50.528C109.972 50.528 111.231 50.848 112.276 51.488C113.343 52.128 114.154 53.0347 114.708 54.208C115.284 55.36 115.572 56.7147 115.572 58.272V59.968H103.828C103.871 61.9093 104.362 63.392 105.3 64.416C106.26 65.4187 107.594 65.92 109.3 65.92C110.388 65.92 111.348 65.824 112.18 65.632C113.034 65.4187 113.908 65.12 114.804 64.736V67.2C113.93 67.584 113.066 67.8613 112.212 68.032C111.359 68.224 110.346 68.32 109.172 68.32C107.551 68.32 106.111 67.9893 104.852 67.328C103.615 66.6667 102.644 65.6853 101.94 64.384C101.258 63.0613 100.916 61.4507 100.916 59.552C100.916 57.6747 101.226 56.064 101.844 54.72C102.484 53.376 103.37 52.3413 104.5 51.616C105.652 50.8907 106.986 50.528 108.5 50.528ZM108.468 52.832C107.124 52.832 106.058 53.2693 105.268 54.144C104.5 54.9973 104.042 56.192 103.892 57.728H112.628C112.628 56.7467 112.479 55.8933 112.18 55.168C111.882 54.4427 111.423 53.8773 110.804 53.472C110.207 53.0453 109.428 52.832 108.468 52.832ZM113.012 43.808C112.82 44.1067 112.543 44.4693 112.18 44.896C111.818 45.3227 111.412 45.7707 110.964 46.24C110.538 46.688 110.1 47.1253 109.652 47.552C109.226 47.9573 108.82 48.3093 108.436 48.608H106.58V48.224C106.9 47.8187 107.242 47.3387 107.604 46.784C107.988 46.2293 108.362 45.664 108.724 45.088C109.087 44.4907 109.386 43.9573 109.62 43.488H113.012V43.808Z" fill="#A37C67"/>
<path d="M45 32.5584C45 42.8271 31.2891 61.1088 25.2773 68.6518C23.8359 70.4494 21.1641 70.4494 19.7227 68.6518C13.7109 61.1088 0 42.8271 0 32.5584C0 20.1043 10.0781 10 22.5 10C34.9219 10 45 20.1043 45 32.5584Z" fill="#755C4E"/>
<circle cx="22" cy="32" r="18" fill="#FFFDFB"/>
<path d="M18.6838 25.5755C19.8955 25.5437 21.066 25.1535 22.0301 24.4601L22.0159 24.4697C23.0848 23.7466 24.3583 23.3415 25.6728 23.3063H25.683C26.3528 23.2369 27.0303 23.2784 27.685 23.429L27.6455 23.4213C28.1422 23.5555 28.411 23.7567 28.4516 24.025C28.5125 24.2767 28.3703 24.4825 28.0252 24.6422C27.6263 24.8179 27.1956 24.9201 26.7561 24.9431H26.747C26.2381 25.045 25.7077 24.9822 25.2413 24.7648L25.2545 24.7706C25.1254 24.7113 25.0105 24.6278 24.9168 24.5251C24.823 24.4225 24.7524 24.3028 24.7093 24.1736L24.7073 24.1669C24.1997 24.2052 23.8802 24.3106 23.7489 24.4831C23.6284 24.6202 23.5687 24.796 23.5824 24.9737V24.9718C23.6433 25.2401 23.9682 25.4797 24.5571 25.6905C25.0484 25.8362 25.6129 25.9205 26.1977 25.9205C26.4887 25.9205 26.7737 25.9004 27.0525 25.8602L27.0211 25.864H27.0536C27.9561 25.864 28.7947 25.6005 29.4861 25.152L29.4719 25.1606C29.6712 25.015 29.8255 24.8217 29.9189 24.6008C30.0123 24.3799 30.0413 24.1394 30.0029 23.9043L30.0039 23.912C29.8821 23.337 29.37 22.8537 28.4678 22.4621C27.2351 22.0297 25.9068 21.8979 24.6058 22.0788L24.6484 22.074C22.5387 22.2631 21.1945 22.6844 20.6158 23.3379C19.818 24.0753 18.7456 24.4878 17.629 24.4869H17.5853H17.5873C17.127 24.5531 16.6568 24.522 16.2106 24.3959L16.233 24.4016C16.0966 24.3703 15.9709 24.307 15.8674 24.2176C15.7639 24.1281 15.6861 24.0154 15.6411 23.8899L15.6391 23.8842C15.6288 23.7837 15.6543 23.6828 15.7115 23.5974C15.7686 23.5121 15.8542 23.4471 15.9548 23.4127L15.9579 23.4117C16.2106 23.3025 16.5051 23.2258 16.8137 23.1971L16.8249 23.1961C17.1536 23.1767 17.4837 23.1924 17.8087 23.2431L17.7833 23.2402C18.0716 23.2747 18.3346 23.3408 18.5803 23.4366L18.5589 23.4299C18.6701 23.391 18.7693 23.3265 18.8473 23.2421L18.8483 23.2412C18.8732 23.2107 18.8902 23.1752 18.8982 23.1375C18.9061 23.0997 18.9047 23.0608 18.894 23.0236V23.0255C18.833 22.8147 18.61 22.6662 18.2249 22.5799C17.7582 22.4868 17.279 22.4632 16.8046 22.51L16.8239 22.5081C15.7687 22.6039 15.1548 22.8243 14.9822 23.1693C14.827 23.4228 14.7576 23.715 14.7832 24.0068V24.002C14.8725 24.2941 15.0355 24.5614 15.2583 24.7809C15.4811 25.0004 15.7571 25.1655 16.0624 25.2622L16.0766 25.266C16.6462 25.4903 17.3071 25.6206 18.0016 25.6206C18.2405 25.6206 18.4747 25.6056 18.7041 25.5755L18.6777 25.5784L18.6838 25.5755ZM32.9583 30.1159C32.3085 30.2686 31.6083 30.4027 30.8577 30.5184C30.1071 30.634 29.3159 30.7286 28.4841 30.802C27.6522 30.8787 26.7696 30.9416 25.8363 30.9908C24.9029 31.04 23.9391 31.064 22.9448 31.0627C21.9099 31.0627 20.9258 31.0387 19.9925 30.9908C19.0591 30.9429 18.1714 30.8758 17.3295 30.7896C16.4875 30.7033 15.6912 30.603 14.9406 30.4887C14.19 30.3743 13.4898 30.2485 12.84 30.1111C11.8669 29.8987 10.9202 29.59 10.0156 29.1902L10.1039 29.2257C9.59301 29.0213 9.14474 28.6991 8.80031 28.2885L8.79524 28.2817C8.91199 29.1126 9.06631 29.837 9.26631 30.5452L9.23687 30.4226C9.47038 31.2706 9.7049 31.9558 9.97395 32.6247L9.92217 32.4781C9.61257 32.6557 9.32037 32.859 9.04905 33.0856L9.05413 33.0808C8.77787 33.3158 8.52158 33.5708 8.28761 33.8436L8.27746 33.8561C7.83794 34.37 7.50271 34.9561 7.2886 35.5848L7.27743 35.6232C7.07345 36.2336 6.98076 36.8723 7.00331 37.512V37.5033C7.03885 38.1415 7.23175 38.7309 7.54647 39.2455L7.53632 39.2263C7.86089 39.749 8.28373 40.2114 8.78407 40.5909L8.79422 40.5986C9.28301 40.9735 9.85372 41.2415 10.4653 41.3834L10.4948 41.3892C11.1264 41.5147 11.7785 41.518 12.4116 41.3988L12.3811 41.4036C12.6837 41.3576 12.9547 41.2819 13.2106 41.1803L13.1872 41.1889C13.4613 41.0835 13.73 40.9924 13.9933 40.9158H13.9608C13.4367 40.916 12.917 40.8251 12.4278 40.6475L12.4573 40.657C11.9433 40.4642 11.4626 40.2003 11.0308 39.8741L11.041 39.8818C10.5643 39.544 10.1517 39.1326 9.82064 38.6648L9.80846 38.6466C9.4752 38.1695 9.26229 37.6266 9.18611 37.0596L9.18408 37.0414C9.06034 36.5077 9.06208 35.9549 9.18915 35.4219L9.18408 35.4468C9.31171 34.9227 9.54207 34.4258 9.86328 33.9816L9.85313 33.996C9.93435 33.9193 10.0105 33.843 10.0816 33.767C10.1526 33.6909 10.2288 33.6146 10.31 33.5379C10.4927 33.9788 10.6904 34.4097 10.9029 34.8307C11.1154 35.2517 11.3456 35.6637 11.5933 36.0669C12.0799 36.7754 12.5771 37.4599 13.0847 38.1205C13.5923 38.781 14.0993 39.4455 14.6055 40.1137C14.7964 40.4453 14.9863 40.843 15.1467 41.255L15.169 41.3202C15.2979 41.6431 15.4188 42.0379 15.5091 42.4433L15.5193 42.4979C15.8624 42.9355 16.2628 43.3064 16.7203 43.6105L16.7366 43.621C17.1914 43.92 17.7163 44.1644 18.2787 44.3292L18.3193 44.3397C18.9417 44.5496 19.6798 44.725 20.4412 44.8342L20.5092 44.8419C21.1915 44.9425 21.9783 45 22.7793 45H22.9438C23.7582 45.0001 24.5713 44.9386 25.3753 44.816L25.287 44.8266C26.0961 44.7121 26.8929 44.5299 27.6678 44.2822L27.5703 44.3091C28.1125 44.1403 28.6263 43.8993 29.0962 43.5932L29.0759 43.6057C29.5381 43.3007 29.9407 42.9223 30.2658 42.4874L30.276 42.473H30.3673C30.4486 42.128 30.5548 41.745 30.6861 41.324C30.8374 40.8487 31.0181 40.4395 31.2374 40.0524L31.2181 40.0888C31.7048 39.4186 32.2019 38.7577 32.7095 38.1061C33.2172 37.4545 33.7245 36.7651 34.2314 36.0381C34.8909 34.9136 35.4401 33.7344 35.8721 32.5154L35.9198 32.3612C36.3719 31.0968 36.7235 29.8024 36.9716 28.4887L37 28.3105C36.6343 28.7284 36.1744 29.064 35.6538 29.2927L35.6304 29.3023C34.8024 29.6757 33.9268 29.9466 33.0253 30.1082L32.9562 30.1188L32.9583 30.1159ZM12.841 28.1322C13.4908 28.2849 14.191 28.4191 14.9416 28.5347C15.6922 28.6504 16.4834 28.7449 17.3152 28.8184C18.1471 28.895 19.0246 28.9525 19.9478 28.9909C20.871 29.0292 21.8379 29.0484 22.8484 29.0484C23.8833 29.0484 24.8623 29.0292 25.7855 28.9909C26.7087 28.9525 27.5862 28.895 28.4181 28.8184C29.2499 28.7417 30.036 28.6414 30.7765 28.5175C31.517 28.3935 32.2219 28.2642 32.8913 28.1294C33.9912 27.9067 35.0524 27.539 36.0436 27.0369L35.9807 27.0666C36.6602 26.684 37 26.301 37 25.9177C36.992 25.7599 36.9488 25.6056 36.8732 25.4647C36.7976 25.3239 36.6914 25.1997 36.5614 25.1002L36.5594 25.0983C36.1937 24.8009 35.7759 24.5658 35.3248 24.4036L35.2964 24.3949C35.4189 24.4754 35.5181 24.5745 35.5939 24.692L35.5969 24.6958C35.6756 24.8117 35.7178 24.9463 35.7187 25.0839C35.7187 25.4864 35.4044 25.8503 34.7756 26.1754C33.9593 26.5607 33.0121 26.8683 32.0182 27.0542L31.9461 27.0657C30.769 27.2957 29.4299 27.4921 27.9287 27.655C26.4972 27.8112 24.8383 27.9003 23.157 27.9003L22.9266 27.8994H22.9387H22.7732C21.0893 27.8987 19.428 27.8167 17.7894 27.6531L17.9934 27.6694C16.5637 27.5389 15.1429 27.3332 13.7375 27.0532L13.9913 27.0954C13.0068 26.8909 12.0529 26.5719 11.1516 26.1457L11.2207 26.1754C10.5919 25.8503 10.2775 25.496 10.2775 25.1127C10.2775 24.9335 10.3283 24.7648 10.4176 24.6201L10.4146 24.6249C10.5435 24.4371 10.711 24.2828 10.908 24.1688L10.9151 24.1649C10.2889 24.3807 9.6902 24.662 9.13027 25.0034L9.1658 24.9833C8.8196 25.175 8.58711 25.519 8.5729 25.9157V25.9177C8.61351 26.3201 8.98374 26.7127 9.68358 27.0954C10.5943 27.5496 11.6491 27.909 12.7608 28.1217L12.837 28.1342L12.841 28.1322Z" fill="#A37C67"/>
</svg>
