<svg width="873" height="173" viewBox="0 0 873 173" fill="none" xmlns="http://www.w3.org/2000/svg">
<g filter="url(#filter0_d_683_1360)">
<path fill-rule="evenodd" clip-rule="evenodd" d="M488.158 1H473.824L442.757 24.3H356.752L381.132 6.01507H366.798L342.418 24.3H189.768L177.105 33.7973H329.755L295.311 59.63H210.185L197.522 69.1273H282.648L254.283 90.4011H113.807L101.144 99.8984H178.358L90.2229 166H104.557L192.692 99.8984H241.62L153.485 166H167.819L296.982 69.1273H382.987L304.138 128.264H259.989L247.326 137.761H291.475L253.824 166H268.158L305.81 137.761H388.566L401.229 128.264H318.473L397.322 69.1273H480.078L492.741 59.63H409.985L444.428 33.7973H488.195L500.858 24.3H457.091L488.158 1ZM430.094 33.7973H344.089L309.645 59.63H395.651L430.094 33.7973ZM771.308 5.51353H756.974L643.79 90.4012L593.525 90.4011L665.62 36.3299H651.286L579.191 90.4011H535.042L636.178 14.5492H621.844L520.708 90.4011H466.047L585.249 1H570.915L350.915 166H365.249L453.384 99.8984H508.045L419.91 166H434.244L522.379 99.8984H566.528L493.926 154.35H508.26L580.862 99.8984H735.305L747.968 90.4011L658.125 90.4012L771.308 5.51353ZM549.289 123.579L536.626 133.076H696.899L709.562 123.579H549.289Z" fill="#FFE8D6"/>
</g>
<g clip-path="url(#clip0_683_1360)" filter="url(#filter1_d_683_1360)">
<g filter="url(#filter2_d_683_1360)">
<path d="M385.133 137.655C385.133 142.961 377.782 152.406 374.559 156.303C373.786 157.232 372.354 157.232 371.581 156.303C368.358 152.406 361.006 142.961 361.006 137.655C361.006 131.221 366.41 126 373.07 126C379.73 126 385.133 131.221 385.133 137.655Z" fill="#A26341"/>
</g>
<path d="M372.943 145.943C373.644 145.943 374.213 145.337 374.213 144.59C374.213 143.842 373.644 143.237 372.943 143.237C372.241 143.237 371.673 143.842 371.673 144.59C371.673 145.337 372.241 145.943 372.943 145.943Z" fill="#FFE8D6"/>
<path d="M379.981 135.037C377.874 133.803 375.438 133.149 372.951 133.149C370.465 133.149 368.029 133.803 365.922 135.037C365.84 135.084 365.769 135.145 365.713 135.218C365.657 135.291 365.617 135.374 365.596 135.461C365.574 135.549 365.572 135.639 365.589 135.727C365.606 135.816 365.641 135.9 365.693 135.975L365.746 136.051C365.846 136.192 366.001 136.293 366.177 136.331C366.354 136.369 366.54 136.342 366.697 136.255C368.567 135.156 370.731 134.573 372.939 134.573C375.148 134.573 377.312 135.156 379.182 136.255C379.339 136.342 379.524 136.369 379.701 136.331C379.878 136.293 380.033 136.192 380.133 136.051L380.186 135.975C380.239 135.901 380.276 135.818 380.294 135.731C380.313 135.643 380.313 135.553 380.294 135.466C380.275 135.379 380.237 135.296 380.183 135.222C380.13 135.148 380.061 135.085 379.981 135.037Z" fill="#FFE8D6"/>
<path d="M378.442 137.861C376.793 136.872 374.891 136.347 372.95 136.347C371.009 136.347 369.107 136.872 367.458 137.861C367.372 137.914 367.298 137.982 367.24 138.062C367.182 138.142 367.141 138.233 367.119 138.328C367.098 138.424 367.096 138.523 367.114 138.619C367.132 138.716 367.17 138.808 367.225 138.89L367.281 138.973C367.388 139.129 367.552 139.239 367.74 139.281C367.929 139.323 368.127 139.294 368.293 139.198C369.688 138.36 371.298 137.916 372.94 137.916C374.582 137.916 376.191 138.36 377.586 139.198C377.753 139.294 377.951 139.323 378.139 139.281C378.328 139.239 378.492 139.129 378.599 138.973L378.655 138.89C378.711 138.809 378.75 138.718 378.769 138.622C378.789 138.527 378.789 138.428 378.769 138.333C378.75 138.237 378.71 138.146 378.654 138.065C378.598 137.985 378.526 137.915 378.442 137.861Z" fill="#FFE8D6"/>
<path d="M376.17 140.916C375.196 140.341 374.08 140.038 372.943 140.038C371.806 140.038 370.69 140.341 369.716 140.916C369.637 140.964 369.569 141.028 369.515 141.102C369.461 141.177 369.424 141.261 369.404 141.35C369.384 141.439 369.382 141.531 369.399 141.621C369.415 141.711 369.45 141.797 369.501 141.873L369.548 141.946C369.65 142.095 369.808 142.199 369.987 142.237C370.167 142.274 370.354 142.242 370.51 142.148C371.247 141.722 372.087 141.498 372.943 141.498C373.799 141.498 374.639 141.722 375.376 142.148C375.533 142.242 375.72 142.273 375.9 142.235C376.079 142.196 376.236 142.091 376.338 141.942L376.385 141.868C376.436 141.792 376.47 141.707 376.487 141.618C376.504 141.528 376.502 141.437 376.482 141.348C376.462 141.259 376.424 141.175 376.37 141.101C376.317 141.027 376.249 140.964 376.17 140.916Z" fill="#FFE8D6"/>
</g>
<g clip-path="url(#clip1_683_1360)" filter="url(#filter3_d_683_1360)">
<g filter="url(#filter4_d_683_1360)">
<path d="M361.006 52.125C361.006 56.734 354.913 64.9395 352.241 68.325C351.6 69.1318 350.413 69.1318 349.772 68.325C347.1 64.9395 341.006 56.734 341.006 52.125C341.006 46.5352 345.486 42 351.006 42C356.527 42 361.006 46.5352 361.006 52.125Z" fill="#86866B"/>
</g>
<path d="M348.342 54.8638C348.082 54.3433 347.947 53.7681 347.947 53.1848C347.947 51.1929 349.477 49.7772 351.618 49.4674C354.116 49.1062 355.188 47.7122 355.902 46.9891C358.043 55.0435 354.066 56.9022 351.618 56.9022C350.974 56.9023 350.341 56.7308 349.783 56.4047" stroke="#FFE8D6" stroke-linecap="round" stroke-linejoin="round"/>
<path d="M345.499 58.1413C345.805 56.2826 347.003 55.1277 349.782 54.4239C351.751 53.9258 353.125 52.6767 354.066 51.3602" stroke="#FFE8D6" stroke-linecap="round" stroke-linejoin="round"/>
</g>
<g clip-path="url(#clip2_683_1360)" filter="url(#filter5_d_683_1360)">
<g filter="url(#filter6_d_683_1360)">
<path d="M548 58.375C548 68.1051 534.898 85.4277 529.154 92.575C527.777 94.2783 525.223 94.2783 523.846 92.575C518.102 85.4277 505 68.1051 505 58.375C505 46.5742 514.63 37 526.5 37C538.37 37 548 46.5742 548 58.375Z" fill="#4F4747"/>
</g>
<ellipse cx="526.5" cy="57.7554" rx="13.087" ry="13.0109" fill="#FFE8D6"/>
<path d="M517.831 63.2541L519.274 60.5874H533.79L535.053 63.2541C535.022 64.3836 534.186 64.6659 533.773 64.6659H519.305C517.753 64.3836 517.676 63.6071 517.831 63.2541Z" fill="#4E4847"/>
<path d="M524.402 63.411L524.789 62.6267H528.234L528.505 63.411H524.402Z" fill="#E9DDD1"/>
<path d="M519.274 51.4402C519.274 51.1641 519.498 50.9402 519.774 50.9402H533.29C533.567 50.9402 533.79 51.1641 533.79 51.4402V60.5874H519.274V51.4402Z" fill="#504847"/>
<rect x="520.636" y="52.2001" width="11.7273" height="7.6" fill="#EADDD2"/>
</g>
<g clip-path="url(#clip3_683_1360)" filter="url(#filter7_d_683_1360)">
<g filter="url(#filter8_d_683_1360)">
<path d="M268.006 14.5C268.006 20.6453 259.475 31.5859 255.734 36.1C254.837 37.1758 253.175 37.1758 252.278 36.1C248.537 31.5859 240.006 20.6453 240.006 14.5C240.006 7.04688 246.277 1 254.006 1C261.735 1 268.006 7.04688 268.006 14.5Z" fill="#DFAE8C"/>
</g>
<path d="M259.68 12.1386H246.677C246.23 16.9685 249.682 20.3158 251.464 21.3857H246.677L248.352 22.6849H258.404L260.319 21.3857H255.053C257.846 19.0166 256.888 18.7109 257.686 18.8638C258.484 19.0166 263.43 17.3353 262.792 14.3549C262.281 11.9705 260.505 11.8839 259.68 12.1386Z" fill="#FFE8D6"/>
<path d="M254.415 9.76953C253.987 10.043 252.926 10.7121 252.501 11.1451C252.421 10.6866 252.508 9.76227 253.059 9.23457C253.618 8.69962 253.963 8.19014 254.016 7.9354C254.335 6.94191 253.086 5.51536 252.261 4.87851C255.293 5.41346 255.783 6.98 255.851 7.62971C255.931 8.39393 254.894 9.46384 254.415 9.76953Z" fill="#FFE8D6"/>
<path d="M259.763 13.7315L258.203 17.6116C258.767 17.7715 259.752 17.2035 260.174 16.8995C261.05 16.2681 261.423 15.0928 261.442 14.8386C261.589 13.684 261.05 13.255 260.762 13.1849C260.325 13.0333 259.914 13.4861 259.763 13.7315Z" fill="#DFAE8C"/>
</g>
<defs>
<filter id="filter0_d_683_1360" x="90.2229" y="0" width="689.085" height="173" filterUnits="userSpaceOnUse" color-interpolation-filters="sRGB">
<feFlood flood-opacity="0" result="BackgroundImageFix"/>
<feColorMatrix in="SourceAlpha" type="matrix" values="0 0 0 0 0 0 0 0 0 0 0 0 0 0 0 0 0 0 127 0" result="hardAlpha"/>
<feOffset dx="4" dy="3"/>
<feGaussianBlur stdDeviation="2"/>
<feComposite in2="hardAlpha" operator="out"/>
<feColorMatrix type="matrix" values="0 0 0 0 0 0 0 0 0 0 0 0 0 0 0 0 0 0 0.2 0"/>
<feBlend mode="normal" in2="BackgroundImageFix" result="effect1_dropShadow_683_1360"/>
<feBlend mode="normal" in="SourceGraphic" in2="effect1_dropShadow_683_1360" result="shape"/>
</filter>
<filter id="filter1_d_683_1360" x="357.006" y="126" width="32" height="39" filterUnits="userSpaceOnUse" color-interpolation-filters="sRGB">
<feFlood flood-opacity="0" result="BackgroundImageFix"/>
<feColorMatrix in="SourceAlpha" type="matrix" values="0 0 0 0 0 0 0 0 0 0 0 0 0 0 0 0 0 0 127 0" result="hardAlpha"/>
<feOffset dy="4"/>
<feGaussianBlur stdDeviation="2"/>
<feComposite in2="hardAlpha" operator="out"/>
<feColorMatrix type="matrix" values="0 0 0 0 0 0 0 0 0 0 0 0 0 0 0 0 0 0 0.25 0"/>
<feBlend mode="normal" in2="BackgroundImageFix" result="effect1_dropShadow_683_1360"/>
<feBlend mode="normal" in="SourceGraphic" in2="effect1_dropShadow_683_1360" result="shape"/>
</filter>
<filter id="filter2_d_683_1360" x="357.006" y="126" width="32.127" height="39" filterUnits="userSpaceOnUse" color-interpolation-filters="sRGB">
<feFlood flood-opacity="0" result="BackgroundImageFix"/>
<feColorMatrix in="SourceAlpha" type="matrix" values="0 0 0 0 0 0 0 0 0 0 0 0 0 0 0 0 0 0 127 0" result="hardAlpha"/>
<feOffset dy="4"/>
<feGaussianBlur stdDeviation="2"/>
<feComposite in2="hardAlpha" operator="out"/>
<feColorMatrix type="matrix" values="0 0 0 0 0 0 0 0 0 0 0 0 0 0 0 0 0 0 0.25 0"/>
<feBlend mode="normal" in2="BackgroundImageFix" result="effect1_dropShadow_683_1360"/>
<feBlend mode="normal" in="SourceGraphic" in2="effect1_dropShadow_683_1360" result="shape"/>
</filter>
<filter id="filter3_d_683_1360" x="337.006" y="42" width="28" height="35" filterUnits="userSpaceOnUse" color-interpolation-filters="sRGB">
<feFlood flood-opacity="0" result="BackgroundImageFix"/>
<feColorMatrix in="SourceAlpha" type="matrix" values="0 0 0 0 0 0 0 0 0 0 0 0 0 0 0 0 0 0 127 0" result="hardAlpha"/>
<feOffset dy="4"/>
<feGaussianBlur stdDeviation="2"/>
<feComposite in2="hardAlpha" operator="out"/>
<feColorMatrix type="matrix" values="0 0 0 0 0 0 0 0 0 0 0 0 0 0 0 0 0 0 0.25 0"/>
<feBlend mode="normal" in2="BackgroundImageFix" result="effect1_dropShadow_683_1360"/>
<feBlend mode="normal" in="SourceGraphic" in2="effect1_dropShadow_683_1360" result="shape"/>
</filter>
<filter id="filter4_d_683_1360" x="337.006" y="42" width="28" height="34.9301" filterUnits="userSpaceOnUse" color-interpolation-filters="sRGB">
<feFlood flood-opacity="0" result="BackgroundImageFix"/>
<feColorMatrix in="SourceAlpha" type="matrix" values="0 0 0 0 0 0 0 0 0 0 0 0 0 0 0 0 0 0 127 0" result="hardAlpha"/>
<feOffset dy="4"/>
<feGaussianBlur stdDeviation="2"/>
<feComposite in2="hardAlpha" operator="out"/>
<feColorMatrix type="matrix" values="0 0 0 0 0 0 0 0 0 0 0 0 0 0 0 0 0 0 0.25 0"/>
<feBlend mode="normal" in2="BackgroundImageFix" result="effect1_dropShadow_683_1360"/>
<feBlend mode="normal" in="SourceGraphic" in2="effect1_dropShadow_683_1360" result="shape"/>
</filter>
<filter id="filter5_d_683_1360" x="501" y="37" width="51" height="65" filterUnits="userSpaceOnUse" color-interpolation-filters="sRGB">
<feFlood flood-opacity="0" result="BackgroundImageFix"/>
<feColorMatrix in="SourceAlpha" type="matrix" values="0 0 0 0 0 0 0 0 0 0 0 0 0 0 0 0 0 0 127 0" result="hardAlpha"/>
<feOffset dy="4"/>
<feGaussianBlur stdDeviation="2"/>
<feComposite in2="hardAlpha" operator="out"/>
<feColorMatrix type="matrix" values="0 0 0 0 0 0 0 0 0 0 0 0 0 0 0 0 0 0 0.25 0"/>
<feBlend mode="normal" in2="BackgroundImageFix" result="effect1_dropShadow_683_1360"/>
<feBlend mode="normal" in="SourceGraphic" in2="effect1_dropShadow_683_1360" result="shape"/>
</filter>
<filter id="filter6_d_683_1360" x="501" y="37" width="51" height="64.8525" filterUnits="userSpaceOnUse" color-interpolation-filters="sRGB">
<feFlood flood-opacity="0" result="BackgroundImageFix"/>
<feColorMatrix in="SourceAlpha" type="matrix" values="0 0 0 0 0 0 0 0 0 0 0 0 0 0 0 0 0 0 127 0" result="hardAlpha"/>
<feOffset dy="4"/>
<feGaussianBlur stdDeviation="2"/>
<feComposite in2="hardAlpha" operator="out"/>
<feColorMatrix type="matrix" values="0 0 0 0 0 0 0 0 0 0 0 0 0 0 0 0 0 0 0.25 0"/>
<feBlend mode="normal" in2="BackgroundImageFix" result="effect1_dropShadow_683_1360"/>
<feBlend mode="normal" in="SourceGraphic" in2="effect1_dropShadow_683_1360" result="shape"/>
</filter>
<filter id="filter7_d_683_1360" x="236.006" y="1" width="36" height="44" filterUnits="userSpaceOnUse" color-interpolation-filters="sRGB">
<feFlood flood-opacity="0" result="BackgroundImageFix"/>
<feColorMatrix in="SourceAlpha" type="matrix" values="0 0 0 0 0 0 0 0 0 0 0 0 0 0 0 0 0 0 127 0" result="hardAlpha"/>
<feOffset dy="4"/>
<feGaussianBlur stdDeviation="2"/>
<feComposite in2="hardAlpha" operator="out"/>
<feColorMatrix type="matrix" values="0 0 0 0 0 0 0 0 0 0 0 0 0 0 0 0 0 0 0.25 0"/>
<feBlend mode="normal" in2="BackgroundImageFix" result="effect1_dropShadow_683_1360"/>
<feBlend mode="normal" in="SourceGraphic" in2="effect1_dropShadow_683_1360" result="shape"/>
</filter>
<filter id="filter8_d_683_1360" x="236.006" y="1" width="36" height="43.9068" filterUnits="userSpaceOnUse" color-interpolation-filters="sRGB">
<feFlood flood-opacity="0" result="BackgroundImageFix"/>
<feColorMatrix in="SourceAlpha" type="matrix" values="0 0 0 0 0 0 0 0 0 0 0 0 0 0 0 0 0 0 127 0" result="hardAlpha"/>
<feOffset dy="4"/>
<feGaussianBlur stdDeviation="2"/>
<feComposite in2="hardAlpha" operator="out"/>
<feColorMatrix type="matrix" values="0 0 0 0 0 0 0 0 0 0 0 0 0 0 0 0 0 0 0.25 0"/>
<feBlend mode="normal" in2="BackgroundImageFix" result="effect1_dropShadow_683_1360"/>
<feBlend mode="normal" in="SourceGraphic" in2="effect1_dropShadow_683_1360" result="shape"/>
</filter>
<clipPath id="clip0_683_1360">
<rect width="24" height="31" fill="white" transform="translate(361.006 126)"/>
</clipPath>
<clipPath id="clip1_683_1360">
<rect width="20" height="27" fill="white" transform="translate(341.006 42)"/>
</clipPath>
<clipPath id="clip2_683_1360">
<rect width="43" height="57" fill="white" transform="translate(505 37)"/>
</clipPath>
<clipPath id="clip3_683_1360">
<rect width="28" height="36" fill="white" transform="translate(240.006 1)"/>
</clipPath>
</defs>
</svg>
