<svg width="14" height="21" viewBox="0 0 14 21" fill="none" xmlns="http://www.w3.org/2000/svg">
<path d="M2 19.5L5 15.5M11 19.5L9 15.5L6 12.5L7 6.5M7 2.5C7 2.76522 7.10536 3.01957 7.29289 3.20711C7.48043 3.39464 7.73478 3.5 8 3.5C8.26522 3.5 8.51957 3.39464 8.70711 3.20711C8.89464 3.01957 9 2.76522 9 2.5C9 2.23478 8.89464 1.98043 8.70711 1.79289C8.51957 1.60536 8.26522 1.5 8 1.5C7.73478 1.5 7.48043 1.60536 7.29289 1.79289C7.10536 1.98043 7 2.23478 7 2.5Z" stroke="#2E2E2D" stroke-width="2" stroke-linecap="round" stroke-linejoin="round"/>
<path d="M1 10.5L3 7.5L7 6.5L10 9.5L13 10.5" stroke="#2E2E2D" stroke-width="2" stroke-linecap="round" stroke-linejoin="round"/>
</svg>
